<mxfile host="app.diagrams.net" modified="2024-05-24T03:12:55.427Z" agent="Mozilla/5.0 (Macintosh; Intel Mac OS X 10_15_7) AppleWebKit/537.36 (KHTML, like Gecko) Chrome/124.0.0.0 Safari/537.36" version="24.4.7" etag="RD-1UAHF00t_fUdk1VVl" type="github">
  <diagram name="페이지-1" id="_YjGm2GK-m2nHTehCC6N">
    <mxGraphModel>
      <root>
        <mxCell id="0" />
        <mxCell id="1" parent="0" />
      </root>
    </mxGraphModel>
  </diagram>
</mxfile>
